<svg width="331" height="244" viewBox="0 0 331 244" fill="none" xmlns="http://www.w3.org/2000/svg">
<path d="M242.404 191.4C240.619 190.677 240.024 189.07 239.537 183.659C238.9 176.59 238.943 176.717 236.845 175.765C234.552 174.726 232.697 172.633 231.67 169.928C230.542 166.958 229.771 167.247 224.397 172.655C218.596 178.492 209.823 177.814 205.17 171.168C202.997 168.065 200.406 168.91 194.359 174.692C182.573 185.962 170.494 181.005 164.483 162.432C160.274 149.428 154.468 149.896 143.216 164.142C142.397 165.18 141.538 166.029 141.308 166.029C141.078 166.029 139.416 167.181 137.616 168.589C130.399 174.232 121.491 176.521 106.404 176.611C90.4709 176.707 75.9033 170.484 76.0096 163.629C76.0552 160.692 78.3455 155.009 79.8806 154.023C80.8936 153.373 81.9021 151.855 83.4295 148.682C86.4741 142.358 88.5611 141.794 92.7681 146.16C95.472 148.966 96.1141 148.872 97.87 145.412C99.94 141.332 103.167 140.405 105.735 143.153C107.261 144.787 108.04 144.544 109.558 141.961C111.899 137.978 114.243 137.464 118.374 140.029C121.492 141.964 122.169 141.841 122.579 139.261C123.451 133.78 118.617 123.407 117.638 128.657C117.129 131.385 114.426 132.388 111.577 130.907C110.307 130.246 110.234 130.266 109.49 131.473C106.924 135.634 103.394 136.357 100.829 133.247C99.8739 132.089 99.5215 132.318 98.4673 134.782C96.7575 138.779 94.413 139.381 89.9232 136.974C86.8535 135.329 85.9031 135.472 85.8969 137.581C85.8644 148.55 72.6853 148.669 68.1444 137.741C67.5278 136.257 67.4773 136.235 64.656 136.249C50.1479 136.317 46.624 123.632 56.8706 108.22C59.5743 104.154 59.7656 103.698 59.7706 101.303C59.7868 93.5763 64.0921 87.4033 71.5304 84.4421C77.4434 82.0881 82.0172 84.8826 83.8088 91.9441C84.526 94.7711 85.0775 94.8114 85.7466 92.0856C88.9711 78.9499 104.248 76.4265 106.819 88.6046C107.095 89.9095 108.514 90.2301 114.516 90.3431C116.003 90.3711 118.519 90.5985 120.106 90.8484C121.694 91.0983 123.153 91.1408 123.35 90.9429C124.234 90.0515 128.353 76.2267 129.356 70.7833C131.045 61.6188 131.35 60.1878 132.822 54.5591C133.572 51.693 134.328 48.7404 134.503 47.9982C135.976 41.7555 140.712 45.8986 142.003 54.5591C142.393 57.1759 142.9 60.4384 143.129 61.8091C143.359 63.1798 143.869 67.3604 144.264 71.0991C145.712 84.8298 146.61 87.3555 148.653 83.4446C154.779 71.7185 172.554 56.2234 177.373 58.4084C183.271 61.0831 182.703 70.506 175.745 85.3713C172.559 92.1786 172.639 92.8456 176.326 90.2111C184.339 84.4859 198.45 75.8556 199.797 75.8556C200.685 75.8556 204.864 78.3389 205.421 79.1975C208.443 83.8497 198.86 95.1403 182.582 106.107C169.847 114.687 168.871 115.77 170.992 118.97C174.178 123.778 178.762 136.223 179.627 142.411C180.892 151.467 183.187 151.692 193.693 143.791C202.584 137.105 206.064 135.995 209.727 138.68C211.795 140.195 214.778 145.143 214.778 147.058C214.778 151.307 215.533 151.137 222.213 145.386C230.866 137.939 243.559 140.55 243.613 149.789C243.621 151.054 245.487 155.535 246.106 155.774C246.464 155.912 247.355 154.851 248.42 153.02C253.668 143.991 259.37 142.898 259.395 150.917C259.414 157.237 262.874 163.18 269.089 167.568C277.664 173.622 278.344 178.104 270.655 177.877C263.163 177.656 258.583 179.815 251.94 186.703C246.636 192.203 245.622 192.702 242.405 191.399L242.404 191.4ZM190.119 169.386C193.264 166.922 194.154 165.381 192.179 165.817C190.038 166.29 188.953 167.126 187.796 169.197C186.484 171.544 187.281 171.61 190.119 169.386ZM78.9334 138.188C81.0731 133.039 80.9037 131.45 78.3768 132.969C74.0599 135.565 73.6057 136.077 74.4391 137.409C76.19 140.205 77.9673 140.513 78.9334 138.188ZM92.9044 129.437C93.0612 128.502 93.2868 127.381 93.4058 126.945C93.6972 125.876 92.6251 125.92 90.3891 127.067C88.2214 128.179 88.1434 128.937 90.0691 130.178C92.1205 131.499 92.5785 131.379 92.9044 129.437ZM72.6311 104.587C75.8272 103.062 77.701 99.0718 74.9747 99.596C70.186 100.517 69.8124 100.495 68.9977 99.2445C67.4123 96.8113 70.8448 94.2212 75.2721 94.5098C77.5659 94.6594 77.5659 94.6594 77.4468 93.1517C76.6892 83.5612 65.5978 90.9437 65.5397 101.077C65.5155 105.288 68.2873 106.66 72.6311 104.587ZM97.2299 96.9248C97.1401 96.6756 96.2276 96.1609 95.2021 95.781C91.0768 94.2527 94.4676 89.2904 99.0126 90.2043C100.463 90.496 100.463 90.496 100.184 88.7651C99.7371 85.999 97.6454 85.2636 95.0632 86.9649C92.6668 88.5438 90.8072 95.7827 92.4816 97.0148C93.4484 97.7261 97.4908 97.6496 97.2299 96.9248Z" fill="white"/>
<path d="M268.002 214C266.048 213.051 265.391 210.926 264.72 203.389C264.103 196.445 263.21 193.768 261.51 193.768C259.878 193.768 256.009 189.594 254.586 186.298C252.584 181.66 251.379 181.994 244.334 189.14C235.73 197.867 225.235 196.372 217.626 185.336C216.138 183.177 212.554 184.669 206.728 189.872C188.411 206.23 173.415 201.819 166.091 177.92C160.682 160.269 153.983 158.825 141.514 172.619C134.968 179.862 133.907 180.842 128.387 184.757C109.233 198.34 72.8087 198.562 53.6769 185.21C47.1243 180.637 46.9508 170.319 53.3557 166.108C54.8696 165.113 56.0647 163.319 58.1232 158.952C61.9963 150.735 65.0844 149.919 69.9975 155.813C73.2081 159.664 74.7378 159.408 77.2568 154.597C80.1234 149.122 83.4981 148.247 87.4009 151.967C89.8739 154.324 90.2809 154.198 92.4479 150.4C95.5773 144.915 98.1357 144.221 103.433 147.42C109.029 150.799 110.939 149.064 110.147 141.318C109.437 134.37 102.581 124.761 102.581 130.715C102.581 134.76 99.6015 136.446 95.7531 134.578C92.6103 133.052 92.7223 133.037 91.8742 135.09C89.8275 140.045 85.6699 141.152 81.3926 137.88C78.7193 135.836 78.2858 135.94 77.5132 138.818C76.0424 144.295 71.9747 145.595 66.4984 142.337C62.3174 139.85 60.9795 139.951 60.5349 142.786C58.1313 158.113 44.2104 158.355 37.8868 143.18C37.0367 141.139 36.8302 141.008 34.9508 141.314C14.9482 144.569 9.08328 122.938 24.6456 103.308C27.0717 100.248 27.1311 100.063 27.1954 95.3906C27.3015 87.6855 29.7165 82.7774 35.5569 78.3979C47.3638 69.544 55.2302 72.0928 58.1311 85.7126C58.6984 88.3763 60.4 87.5497 61.2242 84.2102C65.1029 68.4931 83.7226 63.6424 87.5253 77.3584C88.7896 81.9184 88.5747 81.8641 108.765 82.733C112.122 82.8775 115.4 73.6093 119.936 51.144C121.264 44.5697 122.764 37.7072 123.27 35.894C123.776 34.0806 124.575 30.8591 125.045 28.7355C126.089 24.0167 126.618 23.3276 129.202 23.3276C132.92 23.3276 134.908 31.0352 137.461 55.3502C139.536 75.1089 141.073 79.4153 143.99 73.6425C149.24 63.2533 170.392 42.0002 177.982 39.4884C186.864 36.549 189.427 52.1567 182.543 67.2692C181.641 69.2505 180.538 71.8134 180.091 72.9646C179.645 74.1159 178.394 76.778 177.311 78.8806C173.727 85.8364 174.715 85.962 184.176 79.7532C188.009 77.2374 192.488 74.3171 194.128 73.2633C195.768 72.2098 199.477 69.8063 202.369 67.9222C211.143 62.2072 212.218 62.0317 216.832 65.5606C223.452 70.6237 211.885 86.1607 191.413 99.7039C171.625 112.795 169.692 114.824 172.816 119.232C176.998 125.133 183.762 143.204 184.598 150.709C185.906 162.457 190.089 163.121 202.569 153.561C215.382 143.745 219.907 142.151 224.737 145.751C227.735 147.986 231.289 155.976 231.399 160.726C231.428 161.963 235.146 159.931 239.824 156.12C254.715 143.994 264.679 145.775 269.53 161.431C272.244 170.191 273.201 170.474 277.146 163.689C283.713 152.393 288.931 151.84 290.088 162.319C291.066 171.165 295.238 178.759 301.155 182.462C312.791 189.742 315.054 196.995 305.478 196.308C296.011 195.629 288.69 199.039 280.312 208.029C273.663 215.165 272.03 215.956 268 214L268.002 214ZM279.962 197.137C285.219 192.928 286.926 191.914 290.715 190.748C296.028 189.113 296.075 188.949 292.342 185.024C289.21 181.732 285.456 175.452 284.812 172.429C284.048 168.842 282.995 168.834 280.72 172.4C274.375 182.347 263.049 178.462 261.553 165.826C260.157 154.027 256.039 153.025 245.564 161.938C235.635 170.387 232.94 171.419 228.178 168.602C224.914 166.671 221.896 160.915 221.872 156.572C221.843 151.512 218.249 151.116 213.206 155.618C203.305 164.455 196.416 168.298 190.582 168.239C181.543 168.146 177.612 163.382 175.629 150.11C175.151 146.914 172.097 134.598 171.476 133.365C171.062 132.543 169.963 130.121 169.032 127.983C166.872 123.019 166.421 122.498 162.82 120.806C159.611 119.299 158.938 117.743 161.013 116.629C161.898 116.155 162.108 115.592 161.861 114.356C161.456 112.321 163.31 109.755 166.006 108.622C167.042 108.187 169.634 106.505 171.766 104.884C173.898 103.263 176.313 101.471 177.133 100.901C177.953 100.331 179.832 98.9427 181.308 97.8163C182.784 96.6899 184.26 95.7475 184.588 95.7221C186.919 95.5417 205.049 79.6647 207.584 75.5837C210.027 71.652 208.547 71.6755 203.375 75.6505C201.571 77.0371 198.887 78.821 197.411 79.6146C194.043 81.4257 185.692 87.0919 185.189 87.9076C184.982 88.2434 183.222 89.6018 181.277 90.9262C179.332 92.2506 175.597 95.3441 172.977 97.8006C163.237 106.935 157.261 102.6 163.707 91.0745C165.506 87.8562 167.455 83.8777 168.036 82.2331C168.618 80.5885 170.114 77.4202 171.361 75.1924C172.608 72.9646 174.177 69.4679 174.847 67.422C175.517 65.376 176.528 62.7583 177.094 61.6048C180.6 54.4642 179.63 44.6606 175.816 48.6913C175.065 49.4854 173.242 51.1269 171.766 52.339C166.954 56.2906 156.378 68.3683 153.533 73.1621C149.717 79.5911 147.001 84.8975 146.499 86.9075C145.476 91.0029 137.532 91.3701 136.093 87.3885C134.505 82.9992 132.302 71.6685 131.485 63.6942C129.697 46.2267 129.19 44.2884 127.817 49.6684C127.09 52.5167 126.575 55.5364 124.659 68.1795C124.159 71.48 123.069 75.1359 122.251 76.253C121.544 77.2174 118.687 87.7025 118.687 89.3298C118.687 93.3083 111.135 94.4039 106.163 91.1468C101.739 88.2494 87.645 88.0882 86.4749 90.9216C83.9646 96.9989 74.8619 101.217 69.0911 98.9772C68.419 98.7164 67.9805 98.9748 67.7249 99.7824C66.5098 103.621 60.2407 101.758 60.2407 97.5581C60.2407 94.3985 58.5703 95.2479 53.7077 100.88C49.3295 105.952 46.2641 107.65 41.49 107.65C38.5636 107.65 33.71 108.612 30.8497 109.759C27.6158 111.055 23.4866 128.659 25.7696 131.417C27.9327 134.031 38.6553 134.769 40.5852 132.438C40.9445 132.004 42.027 131.475 42.9909 131.263C43.9547 131.05 48.6999 128.818 53.5357 126.302C63.4848 121.126 72.5334 117.576 75.4491 117.705C75.7772 117.72 80.2054 117.891 85.2897 118.086C99.3718 118.625 105.774 119.691 106.512 121.619C106.687 122.076 108.278 123.45 110.047 124.672C121.956 132.896 121.733 153.885 109.673 160.013C108.117 160.804 106.672 161.73 106.462 162.071C104.634 165.037 79.6034 172.454 67.6958 173.559C58.8345 174.381 57.9256 174.578 57.2684 175.809C55.2356 179.618 64.8152 183.969 79.8199 186.053C85.1026 186.786 89.3623 186.591 99.9018 185.134C115.834 182.93 116.484 182.687 124.528 175.905C126.919 173.888 129.109 172.238 129.393 172.238C129.678 172.238 131.21 170.969 132.798 169.417C153.661 149.033 166.64 151.706 175.36 178.183C180.704 194.413 190.4 196.098 203.078 183C211.508 174.29 220.182 174.537 225.741 183.645C229.248 189.39 233.574 188.954 240.979 182.11C251.905 172.014 257.638 172.079 261.346 182.343C262.672 186.015 262.823 186.181 265.834 187.3C270.396 188.995 273.215 193.616 272.346 197.975C271.294 203.248 272.499 203.115 279.965 197.137L279.962 197.137ZM52.8904 143.235C55.6896 135.547 54.8041 134.509 48.8184 138.464C44.2202 141.502 43.8775 142.432 46.2963 145.314C48.9572 148.485 51.241 147.765 52.8904 143.235ZM70.601 134.115C72.0144 126.968 71.8235 126.686 67.128 128.995C63.1579 130.948 62.9147 132.116 66.0361 134.243C68.943 136.224 70.191 136.189 70.601 134.115ZM46.9676 98.251C50.9898 93.5662 50.4343 92.3124 44.785 93.3248C40.1495 94.1555 38.5377 93.6063 38.8807 91.3134C39.2241 89.0193 42.0308 87.6381 46.3923 87.6169C50.3899 87.5974 50.3899 87.5974 50.2775 85.0685C49.6521 71.0002 33.3631 81.7261 33.4018 96.1807C33.4202 103.01 41.7855 104.286 46.9676 98.251ZM76.5948 90.9429C77.9009 89.4957 77.3512 88.5131 75.2353 88.5131C73.1357 88.5131 70.963 86.9708 70.963 85.4802C70.963 83.7195 74.3334 81.9395 77.6725 81.9369C80.9079 81.9345 81.7247 79.3907 79.4103 76.5247C76.1206 72.451 70.8174 76.2828 68.7479 84.2287C67.1374 90.413 72.7437 95.2099 76.5948 90.9429Z" fill="#2D3130"/>
</svg>
